<?xml version="1.0" standalone="no"?><!DOCTYPE svg PUBLIC "-//W3C//DTD SVG 1.1//EN" "http://www.w3.org/Graphics/SVG/1.1/DTD/svg11.dtd"><svg t="1512696152042" class="icon" style="" viewBox="0 0 1024 1024" version="1.1" xmlns="http://www.w3.org/2000/svg" p-id="831" xmlns:xlink="http://www.w3.org/1999/xlink" width="200" height="200"><defs><style type="text/css"></style></defs><path d="M0 0" p-id="832"></path><path d="M42.632533 204.8h413.866667c35.293867 0 55.466667 20.1728 55.466667 55.466667V273.066667h-106.666667c-34.7136 0-65.3312 34.133333-84.821333 68.266666h382.634666c-19.3536-34.133333-49.800533-68.266667-84.48-68.266666h-72.533333v-12.8c0-58.811733-30.788267-89.6-89.6-89.6H42.632533c-11.810133 0-21.333333 5.256533-21.333333 17.066666S30.8224 204.8 42.632533 204.8zM1002.632533 375.466667H21.333333C9.5232 375.466667 0 376.456533 0 388.266667v426.666666C0 826.743467 9.5232 853.333333 21.333333 853.333333h981.333334C1014.4768 853.333333 1024 826.743467 1024 814.933333v-426.666666C1023.965867 376.456533 1014.442667 375.466667 1002.632533 375.466667zM127.965867 750.933333h-42.666667c-11.810133 0-21.333333-5.256533-21.333333-17.066666S73.489067 716.8 85.2992 716.8h42.666667c11.810133 0 21.333333 5.256533 21.333333 17.066667s-9.5232 17.066667-21.333333 17.066666z m0-136.533333h-42.666667c-11.810133 0-21.333333-5.256533-21.333333-17.066667S73.489067 580.266667 85.2992 580.266667h42.666667c11.810133 0 21.333333 5.256533 21.333333 17.066666s-9.5232 17.066667-21.333333 17.066667z m128 136.533333h-42.666667c-11.810133 0-21.333333-5.256533-21.333333-17.066666s9.5232-17.066667 21.333333-17.066667h42.666667c11.810133 0 21.333333 5.256533 21.333333 17.066667s-9.5232 17.066667-21.333333 17.066666z m0-136.533333h-42.666667c-11.810133 0-21.333333-5.256533-21.333333-17.066667s9.5232-17.066667 21.333333-17.066666h42.666667c11.810133 0 21.333333 5.256533 21.333333 17.066666s-9.5232 17.066667-21.333333 17.066667z m341.333333-34.133333h42.666667c11.810133 0 21.333333 5.256533 21.333333 17.066666s-9.5232 17.066667-21.333333 17.066667h-42.666667c-11.810133 0-21.333333-5.256533-21.333333-17.066667s9.5232-17.066667 21.333333-17.066666z m-128 0h42.666667c11.810133 0 21.333333 5.256533 21.333333 17.066666s-9.5232 17.066667-21.333333 17.066667h-42.666667c-11.810133 0-21.333333-5.256533-21.333333-17.066667s9.5232-17.066667 21.333333-17.066666z m-149.333333 17.066666c0-11.810133 9.5232-17.066667 21.333333-17.066666h42.666667c11.810133 0 21.333333 5.256533 21.333333 17.066666s-9.5232 17.066667-21.333333 17.066667h-42.666667c-11.810133 0-21.333333-5.256533-21.333333-17.066667zM725.2992 750.933333h-341.333333c-11.810133 0-21.333333-5.256533-21.333334-17.066666s9.5232-17.066667 21.333334-17.066667h341.333333c11.810133 0 21.333333 5.256533 21.333333 17.066667s-9.5232 17.066667-21.333333 17.066666z m85.333333-136.533333h-42.666666c-11.810133 0-21.333333-5.256533-21.333334-17.066667s9.5232-17.066667 21.333334-17.066666h42.666666c11.810133 0 21.333333 5.256533 21.333334 17.066666s-9.5232 17.066667-21.333334 17.066667z m128 136.533333h-42.666666c-11.810133 0-21.333333-5.256533-21.333334-17.066666s9.5232-17.066667 21.333334-17.066667h42.666666c11.810133 0 21.333333 5.256533 21.333334 17.066667s-9.5232 17.066667-21.333334 17.066666z m0-136.533333h-42.666666c-11.810133 0-21.333333-5.256533-21.333334-17.066667s9.5232-17.066667 21.333334-17.066666h42.666666c11.810133 0 21.333333 5.256533 21.333334 17.066666s-9.5232 17.066667-21.333334 17.066667z m-810.666666-102.4h-42.666667c-11.810133 0-21.333333-5.256533-21.333333-17.066667S73.489067 477.866667 85.2992 477.866667h42.666667c11.810133 0 21.333333 5.256533 21.333333 17.066666s-9.5232 17.066667-21.333333 17.066667z m128 0h-42.666667c-11.810133 0-21.333333-5.256533-21.333333-17.066667s9.5232-17.066667 21.333333-17.066666h42.666667c11.810133 0 21.333333 5.256533 21.333333 17.066666s-9.5232 17.066667-21.333333 17.066667z m341.333333-34.133333h42.666667c11.810133 0 21.333333 5.256533 21.333333 17.066666s-9.5232 17.066667-21.333333 17.066667h-42.666667c-11.810133 0-21.333333-5.256533-21.333333-17.066667s9.5232-17.066667 21.333333-17.066666z m-128 0h42.666667c11.810133 0 21.333333 5.256533 21.333333 17.066666s-9.5232 17.066667-21.333333 17.066667h-42.666667c-11.810133 0-21.333333-5.256533-21.333333-17.066667s9.5232-17.066667 21.333333-17.066666z m-149.333333 17.066666c0-11.810133 9.5232-17.066667 21.333333-17.066666h42.666667c11.810133 0 21.333333 5.256533 21.333333 17.066666s-9.5232 17.066667-21.333333 17.066667h-42.666667c-11.810133 0-21.333333-5.256533-21.333333-17.066667zM810.632533 512h-42.666666c-11.810133 0-21.333333-5.256533-21.333334-17.066667s9.5232-17.066667 21.333334-17.066666h42.666666c11.810133 0 21.333333 5.256533 21.333334 17.066666s-9.5232 17.066667-21.333334 17.066667z m128 0h-42.666666c-11.810133 0-21.333333-5.256533-21.333334-17.066667s9.5232-17.066667 21.333334-17.066666h42.666666c11.810133 0 21.333333 5.256533 21.333334 17.066666s-9.5232 17.066667-21.333334 17.066667z" p-id="833"></path></svg>